<svg xmlns="http://www.w3.org/2000/svg" version="1.1" xmlns:xlink="http://www.w3.org/1999/xlink" xmlns:svgjs="http://svgjs.com/svgjs" width="1920" height="1080" preserveAspectRatio="none" viewBox="0 0 1920 1080"><g mask="url(&quot;#SvgjsMask1000&quot;)" fill="none"><rect width="1920" height="1080" x="0" y="0" fill="rgba(255, 245, 199, 1)"></rect><path d="M0,557.755C134.526,559.267,265.906,656.897,391.972,609.921C523.574,560.882,603.1,429.212,672.549,307.143C747.089,176.124,854.198,26.703,804.806,-115.714C754.34,-261.225,558.592,-284.922,435.232,-377.131C343.439,-445.745,280.816,-550.159,172.709,-588.194C61.548,-627.304,-62.304,-629.97,-173.635,-591.348C-282.326,-553.642,-347.876,-451.952,-435.367,-377.248C-541.066,-286.996,-709.796,-241.948,-741.362,-106.592C-772.669,27.654,-647.53,144.276,-585.725,267.492C-526.431,385.702,-504.844,542.449,-386.349,601.171C-267.831,659.904,-132.265,556.268,0,557.755" fill="#ffefa3"></path><path d="M1920 1720.96C2097.987 1762.261 2258.874 1933.0610000000001 2433.337 1878.768 2604.511 1825.499 2685.228 1626.458 2754.709 1461.199 2822.723 1299.429 2854.8 1122.78 2823.803 950.053 2793.417 780.732 2697.369 634.0129999999999 2583.177 505.35400000000004 2470.029 377.871 2338.727 258.45399999999995 2173.345 217.187 2010.9180000000001 176.65800000000002 1843.079 224.85000000000002 1685.499 281.36199999999997 1535.173 335.27200000000005 1389.1779999999999 408.922 1289.897 534.012 1192.838 656.303 1172.592 815.126 1140.5810000000001 967.936 1106.402 1131.099 1014.478 1310.979 1096.768 1455.9569999999999 1179.5230000000001 1601.7530000000002 1380.318 1620.079 1539.899 1671.449 1664.038 1711.4099999999999 1792.963 1691.482 1920 1720.96" fill="#fffceb"></path></g><defs><mask id="SvgjsMask1000"><rect width="1920" height="1080" fill="#ffffff"></rect></mask></defs></svg>